<svg id="Capa_1" data-name="Capa 1" xmlns="http://www.w3.org/2000/svg" viewBox="0 0 180 155.63"><defs><style>.cls-1{fill:#000;stroke-width:0}</style></defs><path class="cls-1" d="M0 4.34C3.23 1.02 7.12-.18 11.75.02c6.15.27 12.33-.02 18.5.1 5.68.11 9.03 3.28 9.18 8.38.15 5.17-3.02 8.45-8.75 8.78-3.16.18-6.34.22-9.5.04-3.71-.21-4.93 1.35-4.9 5 .14 15.16.06 30.33.06 45.5 0 21.5.12 43-.09 64.5-.04 4.57 1.3 6.39 5.94 6.04 3.3-.25 6.69-.16 9.96.33 5.07.76 7.67 4.27 7.33 9.08-.32 4.52-3.26 7.53-8.26 7.68-7.66.23-15.33.05-23 .08-3.49.01-5.86-2.08-8.22-4.21V4.34ZM180 152.34c-2.96 2.45-6.32 3.4-10.19 3.29-6.49-.19-13 .03-19.5-.09-5.78-.1-9.24-3.2-9.43-8.16-.18-4.65 3-8.12 8.38-8.83 2.46-.32 4.99-.22 7.49-.24 6.99-.05 7.02-.04 7.02-6.84V42.98c0-6.67-.23-13.34.08-19.99.2-4.48-1.55-5.99-5.83-5.66-2.98.23-6.01.17-8.99-.12-5.08-.5-8.16-3.82-8.16-8.42 0-4.84 3.3-8.44 8.51-8.59 7.66-.22 15.33-.07 23-.05 3.29 0 5.6 1.84 7.61 4.2v148ZM90.36 120.63c-25.02-.01-42.64-17.78-42.56-42.9.08-24.66 17.97-42.54 42.59-42.54 24.88 0 42.5 17.86 42.48 43.09-.02 24.89-17.56 42.37-42.51 42.36ZM64.21 77.85c-.05 16.29 10.76 27.97 26.03 28.13 15.1.16 26.38-11.66 26.5-27.76.12-16.19-10.77-27.76-26.16-27.79-15.69-.03-26.32 11.02-26.37 27.42Z"/></svg>